0
SECTION
2
HEADER
9
$INSUNITS
70
4
9
$ACADVER
1
AC1014
9
$HANDSEED
5
FFFF
0
ENDSEC
0
SECTION
2
TABLES
0
TABLE
2
VPORT
5
8
100
AcDbSymbolTable
0
ENDTAB
0
TABLE
2
LTYPE
5
5
100
AcDbSymbolTable
0
LTYPE
5
14
100
AcDbSymbolTableRecord
100
AcDbLinetypeTableRecord
2
BYBLOCK
70
0
0
LTYPE
5
15
100
AcDbSymbolTableRecord
100
AcDbLinetypeTableRecord
2
BYLAYER
70
0
0
ENDTAB
0
TABLE
2
LAYER
5
2
100
AcDbSymbolTable
70
2
0
LAYER
5
50
100
AcDbSymbolTableRecord
100
AcDbLayerTableRecord
2
0
70
0
6
CONTINUOUS
0
ENDTAB
0
TABLE
2
STYLE
5
3
100
AcDbSymbolTable
70
1
0
STYLE
5
11
100
AcDbSymbolTableRecord
100
AcDbTextStyleTableRecord
2
STANDARD
70
0
0
ENDTAB
0
TABLE
2
VIEW
5
6
100
AcDbSymbolTable
70
0
0
ENDTAB
0
TABLE
2
UCS
5
7
100
AcDbSymbolTable
70
0
0
ENDTAB
0
TABLE
2
APPID
5
9
100
AcDbSymbolTable
70
2
0
APPID
5
12
100
AcDbSymbolTableRecord
100
AcDbRegAppTableRecord
2
ACAD
70
0
0
ENDTAB
0
TABLE
2
DIMSTYLE
5
A
100
AcDbSymbolTable
70
1
0
ENDTAB
0
TABLE
2
BLOCK_RECORD
5
1
100
AcDbSymbolTable
70
1
0
BLOCK_RECORD
5
1F
100
AcDbSymbolTableRecord
100
AcDbBlockTableRecord
2
*MODEL_SPACE
0
BLOCK_RECORD
5
1B
100
AcDbSymbolTableRecord
100
AcDbBlockTableRecord
2
*PAPER_SPACE
0
ENDTAB
0
ENDSEC
0
SECTION
2
BLOCKS
0
BLOCK
5
20
100
AcDbEntity
100
AcDbBlockBegin
2
*MODEL_SPACE
0
ENDBLK
5
21
100
AcDbEntity
100
AcDbBlockEnd
0
BLOCK
5
1C
100
AcDbEntity
100
AcDbBlockBegin
2
*PAPER_SPACE
0
ENDBLK
5
1D
100
AcDbEntity
100
AcDbBlockEnd
0
ENDSEC
0
SECTION
2
ENTITIES
0
LWPOLYLINE
5
100
100
AcDbEntity
8
0
100
AcDbPolyline
90
32
70
1
43
0.0
10
72.632593748229766
20
9.2253449792024771
10
68.36344374822977
20
9.2253449792024771
42
0.99999999999999989
10
68.36344374822977
20
-7.5522323481558349
10
72.63259374822978
20
-7.5522323481558296
10
72.63259374822978
20
-79.013443663246775
10
70.832593748229769
20
-79.013443663246761
10
70.832593748229812
20
-90.363443663246812
10
72.63259374822978
20
-90.36344366324677
10
72.632593748229809
20
-113.75211237928434
42
-0.41421356237309503
10
69.632593748229766
20
-116.75211237928438
10
-71.213163634747644
20
-116.75211237928438
42
-0.42327919086734733
10
-74.305706421736261
20
-113.75354008024333
10
-74.305706421736289
20
-90.363443663246784
10
-72.505706421736264
20
-90.36344366324677
10
-72.505706421736306
20
-79.013443663246775
10
-74.305706421736318
20
-79.013443620786745
10
-74.305706421736346
20
-7.552232305695842
10
-70.03655642173635
20
-7.5522323056958403
42
0.99999999999999989
10
-70.03655642173635
20
9.2253450216624628
10
-74.30570642173636
20
9.2253450216624788
10
-74.305706421736303
20
80.686556336753398
10
-72.505706421736292
20
80.686556336753398
10
-72.505706421736321
20
92.036556336753407
10
-74.21316363474763
20
92.036556336753378
10
-74.213163634747644
20
115.23655633307354
42
-0.41421356275599031
10
-71.213163630825761
20
118.23655633307359
10
69.632593752151635
20
118.23655614894754
42
-0.41421356199019982
10
72.632593748229766
20
115.23655614894756
10
72.632593748229766
20
92.036556336753378
10
70.832593748229755
20
92.036556336753364
10
70.832593748229783
20
80.68655633675337
10
72.63259374822978
20
80.686556294293425
0
LWPOLYLINE
5
101
100
AcDbEntity
8
0
100
AcDbPolyline
90
4
70
1
43
0.0
10
-44.986556336753068
20
-110.66344366324694
10
-44.986556336753068
20
-108.76344366324693
10
-45.824260425051058
20
-108.76344366324693
10
-45.824260425051058
20
-110.66344366324694
0
LWPOLYLINE
5
102
100
AcDbEntity
8
0
100
AcDbPolyline
90
4
70
1
43
0.0
10
-56.624260425051062
20
-110.66344366324694
10
-56.624260425051062
20
-108.76344366324693
10
-57.486556336753068
20
-108.76344366324693
10
-57.486556336753068
20
-110.66344366324694
0
CIRCLE
5
103
100
AcDbEntity
8
0
100
AcDbCircle
10
-48.736556336753068
20
-110.71344366324693
30
0
40
0.49999999999999989
210
-0
220
0
230
1
0
CIRCLE
5
104
100
AcDbEntity
8
0
100
AcDbCircle
10
-53.736556336753068
20
-113.21344366324693
30
0
40
0.50000000000000022
210
-9.8607613152626476e-32
220
-6.0379751544150843e-48
230
1
0
CIRCLE
5
105
100
AcDbEntity
8
0
100
AcDbCircle
10
-48.736556336753068
20
-113.21344366324693
30
0
40
0.50000000000000022
210
-9.8607613152626476e-32
220
-6.0379751544150843e-48
230
1
0
CIRCLE
5
106
100
AcDbEntity
8
0
100
AcDbCircle
10
-53.736556336753068
20
-110.71344366324693
30
0
40
0.49999999999999989
210
-0
220
0
230
1
0
CIRCLE
5
107
100
AcDbEntity
8
0
100
AcDbCircle
10
-51.236556327812373
20
-113.21344366324693
30
0
40
0.5
210
9.8607613152626476e-32
220
6.0379751544150843e-48
230
1
0
LWPOLYLINE
5
108
100
AcDbEntity
8
0
100
AcDbPolyline
90
4
70
1
43
0.0
10
-7.9914328991096797
20
-110.6634436632466
10
-7.9914328991096886
20
-108.7634436632466
10
-8.8291369874076775
20
-108.76344366324659
10
-8.8291369874076704
20
-110.66344366324658
0
LWPOLYLINE
5
109
100
AcDbEntity
8
0
100
AcDbPolyline
90
4
70
1
43
0.0
10
-19.629136987407673
20
-110.66344366324664
10
-19.629136987407676
20
-108.76344366324665
10
-20.491432899109689
20
-108.76344366324666
10
-20.491432899109682
20
-110.66344366324665
0
CIRCLE
5
110
100
AcDbEntity
8
0
100
AcDbCircle
10
-11.741432899109681
20
-110.71344366324661
30
0
40
0.49999999999999989
210
-1.750903014494992e-45
220
3.944304526105059e-31
230
1
0
CIRCLE
5
111
100
AcDbEntity
8
0
100
AcDbCircle
10
-16.741432899109668
20
-113.21344366324665
30
0
40
0.50000000000000022
210
-0
220
0
230
1
0
CIRCLE
5
112
100
AcDbEntity
8
0
100
AcDbCircle
10
-11.74143289910967
20
-113.21344366324661
30
0
40
0.50000000000000022
210
-0
220
0
230
1
0
CIRCLE
5
113
100
AcDbEntity
8
0
100
AcDbCircle
10
-16.741432899109682
20
-110.71344366324665
30
0
40
0.49999999999999989
210
-1.750903014494992e-45
220
3.944304526105059e-31
230
1
0
CIRCLE
5
114
100
AcDbEntity
8
0
100
AcDbCircle
10
-14.241432890168973
20
-113.21344366324661
30
0
40
0.5
210
9.8607613152624724e-32
220
3.9443045261050634e-31
230
1
0
CIRCLE
5
115
100
AcDbEntity
8
0
100
AcDbCircle
10
-0.83655633675328578
20
45.722636259708274
30
0
40
48
210
-9.8607613152626476e-32
220
-6.0379751544151767e-48
230
1
0
CIRCLE
5
116
100
AcDbEntity
8
0
100
AcDbCircle
10
43.61344366324677
20
-76.013443663246775
30
0
40
1.6000000000000014
210
-9.8607613152626476e-32
220
-6.0379751544150831e-48
230
1
0
CIRCLE
5
117
100
AcDbEntity
8
0
100
AcDbCircle
10
43.613443663246755
20
77.686556336753398
30
0
40
1.6000000000000014
210
-9.8607613152626476e-32
220
-6.0379751544150831e-48
230
1
0
CIRCLE
5
118
100
AcDbEntity
8
0
100
AcDbCircle
10
-45.286556336753286
20
-76.013443663246775
30
0
40
1.6000000000000014
210
-9.8607613152626476e-32
220
-6.0379751544150831e-48
230
1
0
CIRCLE
5
119
100
AcDbEntity
8
0
100
AcDbCircle
10
-45.286556336753307
20
77.686556336753398
30
0
40
1.6000000000000014
210
-9.8607613152626476e-32
220
-6.0379751544150831e-48
230
1
0
ENDSEC
0
SECTION
2
OBJECTS
0
DICTIONARY
5
C
100
AcDbDictionary
3
ACAD_GROUP
350
D
3
ACAD_MLINESTYLE
350
17
0
DICTIONARY
5
D
100
AcDbDictionary
0
DICTIONARY
5
1A
330
C
100
AcDbDictionary
0
DICTIONARY
5
17
100
AcDbDictionary
0
ENDSEC
0
EOF
